# xmcd
#
# Track frame offsets: 
#        150
#        41441
#        60937
#        76213
#        103817
#        123500
#        136342
#        148271
#        160423
#        173324
#        184073
#        196134
#        209643
#        223613
#        237400
#        252215
#        273749
#        293206
#        306601
#
# Disc length: 4255 seconds
#
# Revision: 0
# Processed by: cddbd v1.5.2PL0 Copyright (c) Steve Scherf et al.
# Submitted via: ExactAudioCopy v0.99pb5
#
DISCID=23109d13
DTITLE=Various Artist - Super Hits Blues CD1
DYEAR=2007
DGENRE=Blues
TTITLE0=Stevie Ray Vaughan And Double Trouble Tin pan alley
TTITLE1=Jeff Beck JB's blues
TTITLE2=Keb' Mo Just like you
TTITLE3=Muddy Waters She moves me
TTITLE4=johnny Winter Too much seconal
TTITLE5=Lightin' Hopkins Home in the woods (No good woman)
TTITLE6=Robert Johnson Croos road blues
TTITLE7=Big Bill Broonzy Merry go round blues
TTITLE8=Arthur "Big Boy" Crudup That's all right
TTITLE9=Sonny Boy Williamson Apple tree swing
TTITLE10=Big Maceo Broke and hungry blues
TTITLE11=Leadbelly Fort Worth and Dallas bmues
TTITLE12=Tommy McLennan I love my baby
TTITLE13=Tampa Red Seminole blues
TTITLE14=Lonnie Johnson Wipe it off
TTITLE15=Willie Dixon I'm your hoochie coochie man
TTITLE16=Son House Death letter blues
TTITLE17=Eddie Boyd She's real
TTITLE18=Big Joe Williams Baby, please don't go
EXTD=
EXTT0=
EXTT1=
EXTT2=
EXTT3=
EXTT4=
EXTT5=
EXTT6=
EXTT7=
EXTT8=
EXTT9=
EXTT10=
EXTT11=
EXTT12=
EXTT13=
EXTT14=
EXTT15=
EXTT16=
EXTT17=
EXTT18=
PLAYORDER=
